inDegrees=no
num_controls=7
num_derivatives=13
num_iterations=141
num_multipliers=7
num_parameters=0
num_slacks=7
num_states=26
objective=5.734217
objective_accelerations=0.649995
objective_balance=0.088298
objective_effort=0.503310
objective_height=4.389934
objective_ligament=0.102680
solver_duration=1576.303883
status=Solve_Succeeded
success=true
DataType=double
version=3
OpenSimVersion=4.4-2022-07-23-0e9fedc
endheader
time	/jointset/ground_pelvis/pelvis_tilt/value	/jointset/ground_pelvis/pelvis_tx/value	/jointset/ground_pelvis/pelvis_ty/value	/jointset/hip_l/hip_flexion_l/value	/jointset/hip_l/hip_adduction_l/value	/jointset/hip_l/hip_rotation_l/value	/jointset/back/lumbar_extension/value	/jointset/patellofemoral_l/patellar_flexion_l/value	/jointset/knee_l/knee_flexion_l/value	/jointset/knee_l/knee_adduction_l/value	/jointset/knee_l/knee_rotation_l/value	/jointset/ankle_l/ankle_angle_l/value	/jointset/subtalar_l/subtalar_angle_l/value	/jointset/ground_pelvis/pelvis_tilt/speed	/jointset/ground_pelvis/pelvis_tx/speed	/jointset/ground_pelvis/pelvis_ty/speed	/jointset/hip_l/hip_flexion_l/speed	/jointset/hip_l/hip_adduction_l/speed	/jointset/hip_l/hip_rotation_l/speed	/jointset/back/lumbar_extension/speed	/jointset/patellofemoral_l/patellar_flexion_l/speed	/jointset/knee_l/knee_flexion_l/speed	/jointset/knee_l/knee_adduction_l/speed	/jointset/knee_l/knee_rotation_l/speed	/jointset/ankle_l/ankle_angle_l/speed	/jointset/subtalar_l/subtalar_angle_l/speed	/forceset/tau_hip_flexion_l	/forceset/tau_hip_adduction_l	/forceset/tau_hip_rotation_l	/forceset/tau_knee_flexion_l	/forceset/tau_ankle_angle_l	/forceset/tau_subtalar_angle_l	/forceset/tau_lumbar_extension	lambda_cid13_p0	lambda_cid13_p1	lambda_cid13_p2	lambda_cid13_p3	lambda_cid13_p4	lambda_cid13_p5	lambda_cid14_p0	/jointset/ground_pelvis/pelvis_tilt/accel	/jointset/ground_pelvis/pelvis_tx/accel	/jointset/ground_pelvis/pelvis_ty/accel	/jointset/hip_l/hip_flexion_l/accel	/jointset/hip_l/hip_adduction_l/accel	/jointset/hip_l/hip_rotation_l/accel	/jointset/back/lumbar_extension/accel	/jointset/patellofemoral_l/patellar_flexion_l/accel	/jointset/knee_l/knee_flexion_l/accel	/jointset/knee_l/knee_adduction_l/accel	/jointset/knee_l/knee_rotation_l/accel	/jointset/ankle_l/ankle_angle_l/accel	/jointset/subtalar_l/subtalar_angle_l/accel	gamma_cid13_p0	gamma_cid13_p1	gamma_cid13_p2	gamma_cid13_p3	gamma_cid13_p4	gamma_cid13_p5	gamma_cid14_p0
0.5	-0.5102960660178205	-0.1039044944908705	0.7530736474027433	1.341626278362565	-0.3111189174259829	-0.06822217811754838	-0.3375787502791595	0.6393960531575043	0.639396053157571	-0.1735539810697621	0.1744957008476337	-0.03314217640004626	-0.06379100734991533	-0.9204736800238161	-0.3334926922749109	-0.5241437214095617	2.569775866506249	-0.0551343532505765	0.5626326964520995	-0.6123439303416864	1.645584998184175	1.645584998184168	-0.005174468406576762	-0.0001524075159040014	0.07028555816232968	-0.05805655348599036	-0.2770478852438196	0.0144230553446468	-0.01868573224314674	-0.1816854510971725	0.1765372836116931	0.04314082590512581	0.2393555963332083	17.54936204856791	-24.12791045404274	6.093181157986348	-8.672702622607723	-608.5558961040455	-58.87742452020487	-31.08008639910582	0.6986021572908411	0.829582509808403	-0.266820475784849	-1.722372073380428	0.5245347911597985	-0.2208438637036291	1.918703752229096	-1.014547444843399	-1.014547444843432	0.01306431239073009	-0.03085185636418787	0.1008063373927814	0.530491089554894	-3.909588575436932e-09	-9.599801932345463e-07	1.897747860419127e-07	-1.670518528801086e-07	-2.018963106148163e-07	1.519784000185818e-07	-1.626339281269874e-07
0.51	-0.5194639058591434	-0.1071975930753745	0.7478199710165243	1.367233575199519	-0.3116450822388974	-0.06260875755178676	-0.3436065478549501	0.6557990218584491	0.6557990218585229	-0.1736063435434001	0.1744943453835123	-0.0324348217898486	-0.0643461315976858	-0.9129765625073378	-0.3251017587981008	-0.5264849720749223	2.551356518664916	-0.05010437103338337	0.5599692705883621	-0.593162094567894	1.634788957763857	1.634788957763858	-0.005285070841386813	-0.0001103126917412329	0.0711544149082142	-0.05297588233115335	-0.286301310998791	0.01504835725652428	-0.0187561070972612	-0.1824596365937067	0.1776073833185577	0.04386283529553506	0.2462792780987533	17.6161552789224	-24.33264442563619	5.988147479751422	-8.785202926362272	-613.5140174238451	-58.49891358054521	-30.18361329182851	0.7929116750240967	0.8476060445226714	-0.2018290298184028	-1.950780358219012	0.4914801224801038	-0.3015823416352007	1.925947026728541	-1.145067762041277	-1.145067762039819	-0.02134920911117467	0.0228926195878816	0.07527851241956787	0.4958408898307698	-3.578551051384199e-08	-8.645876947560432e-07	3.242126934254206e-07	-1.339987189779692e-07	-2.052022781437383e-07	1.824655449211476e-07	-1.733938406179024e-07
0.52	-0.5285532455000654	-0.1104060308695277	0.7425460717900688	1.392646865714328	-0.3121210971925385	-0.05702446932345809	-0.3494409223656482	0.6720874430708961	0.6720874430709866	-0.1736594573788976	0.1744936413612104	-0.03171970797834555	-0.06485065198163179	-0.9047736399429614	-0.3165605342047564	-0.5281882894567215	2.530974602075234	-0.04510438139693824	0.5568062289675405	-0.5736593173231677	1.62267550048691	1.622675500486919	-0.005324740783960179	-2.211915631419573e-05	0.07183739842342578	-0.0479357807210043	-0.2955547367537216	0.01567365916840053	-0.018826481951164	-0.1832338220903063	0.178677483025393	0.04458484468593741	0.2532029598643562	17.67458127960418	-24.53816975174375	5.885817205748202	-8.875906656468008	-618.5982672390894	-58.17072786622361	-29.27114103377173	0.8397631668703591	0.8596407331155878	-0.1392338190724364	-2.114885823050005	0.5185362750101082	-0.3207670151205094	1.982892046415722	-1.278030816169286	-1.278030816169269	0.02725081083794343	-0.02163211411117579	0.0636316912586307	0.5223771806173163	-9.38062389148906e-08	-7.269883639413238e-07	5.898787796663739e-07	-7.543324036199347e-08	-2.234711352548777e-07	2.300275954157507e-07	-1.982871212951861e-07
0.53	-0.5375571290573181	-0.1135283946660911	0.7372583331713897	1.417846707256884	-0.3125474373574038	-0.05147336306074964	-0.3550787793430228	0.6882481024010364	0.6882481024010834	-0.1737132913445759	0.1744933477316749	-0.03099874746394214	-0.06530515804035431	-0.8958902543636355	-0.3078953484291399	-0.529251812631983	2.508681251757557	-0.04017198907791348	0.5533258851571669	-0.5538741713919081	1.609248687855081	1.609248687855085	-0.00542170118166595	-2.127480512663799e-05	0.07232578502059173	-0.04297511377866754	-0.3046409992312333	0.01615164594191502	-0.01891277748192039	-0.1839564713758738	0.1796886300810814	0.04515715084244143	0.2599260320724107	17.71762960385831	-24.67984274598303	5.777711894705192	-8.921634140348457	-623.5467135017414	-57.73660119812368	-28.34621454181164	0.9295235957565493	0.872480068181976	-0.07381493282412199	-2.333457748743812	0.479345924132238	-0.3752388631475691	1.982011879917638	-1.406115867228502	-1.406115867228888	-0.02520619152308766	0.01305289213884242	0.03710644586542546	0.4814768967268741	-1.422614736674996e-07	-6.003982850281719e-07	8.084973875914129e-07	-1.998019220039879e-08	-2.382584626843372e-07	2.728094528311024e-07	-2.163391874193112e-07
0.54	-0.546468799290325	-0.1165636020912174	0.7319631786477423	1.442814235673751	-0.3129247025563159	-0.04595977439597777	-0.3605176476583972	0.7042682717287548	0.7042682717287353	-0.1737675022595407	0.1744934845821137	-0.03027377022318248	-0.06571034434051691	-0.8863309750926132	-0.2991292599173315	-0.5296714704502581	2.484511976935203	-0.03528938820754222	0.5493027093807014	-0.5338615849232187	1.594577500001683	1.594577500001683	-0.005400130637286599	6.397684227748291e-05	0.07264074369454786	-0.03807182900892397	-0.3137272617086685	0.01662963271545342	-0.01899907301281667	-0.1846791206614526	0.1806997771367497	0.04572945699896439	0.2666491042805522	17.75315008255232	-24.82324734078804	5.673366319952412	-8.958465954351096	-628.6155393371695	-57.3644835320932	-27.41303877618495	0.9749419052094904	0.8798212803542869	-0.01046074767506478	-2.490070723985099	0.5085779852793001	-0.4293334083389407	2.028380153901541	-1.526905860482959	-1.526905860482943	0.05095699925486309	-0.004750654867714151	0.02894610661712387	0.5109007460987079	-1.801336090643881e-07	-4.859886550273927e-07	9.750634663158656e-07	3.202931588400834e-08	-2.491938849340656e-07	3.103025859885588e-07	-2.268222502080267e-07
